<svg width="24" height="26" viewBox="0 0 24 26" fill="none" xmlns="http://www.w3.org/2000/svg">
<path d="M5.68116 12.1411L5.60029 11.8622C5.59327 11.8378 5.57704 11.8167 5.55468 11.8029C5.53232 11.7891 5.50539 11.7835 5.47899 11.7873C4.68617 11.8888 2.82013 12.1427 2.65313 12.2868C2.60884 12.3211 2.57628 12.3671 2.55955 12.419C2.54281 12.4708 2.54265 12.5262 2.55908 12.5781C2.596 12.6947 2.71466 12.7879 2.8465 12.8045C2.92561 12.817 3.02932 12.8212 3.11722 12.8254C3.10824 12.8653 3.10974 12.9068 3.12161 12.9461C3.14535 13.0252 3.20951 13.0818 3.29301 13.0984C3.32993 13.1062 3.37007 13.1095 3.41343 13.1084C4.0665 13.1084 5.46405 12.3509 5.62842 12.2593C5.65019 12.2481 5.66727 12.2302 5.67686 12.2085C5.68645 12.1869 5.68796 12.1628 5.68116 12.1402" fill="#91674D"/>
<path d="M8.15998 8.1748L6.78616 10.6322L6.78177 10.6347L4.42175 11.8227C4.01743 12.0058 4.41912 12.994 4.83047 12.994C4.86689 12.9934 4.9028 12.9858 4.93595 12.9715L7.63172 11.9475L7.62997 11.9434C7.79292 11.8749 7.92845 11.7588 8.01671 11.6121L8.02374 11.6162L9.5883 8.89239L8.15998 8.1748Z" fill="url(#paint0_linear_1533_842)"/>
<path d="M5.50417 11.8573C5.22642 11.5493 5.01811 11.566 4.73068 11.6259L4.52149 11.6759C4.31054 11.7283 4.04685 11.7924 3.62231 11.8399C3.05802 11.9023 2.37067 11.8781 2.36364 11.8781C2.3525 11.8765 2.34137 11.877 2.33024 11.8798C2.27257 11.8917 2.21926 11.9178 2.17572 11.9555C2.13218 11.9933 2.09997 12.0412 2.08237 12.0946C2.06764 12.1422 2.06638 12.1926 2.07873 12.2409C2.09107 12.2891 2.11657 12.3334 2.15269 12.3693C2.36364 12.5816 3.13273 12.6207 3.59858 12.5941C3.73042 12.5857 3.96159 12.5774 4.14617 12.5708C4.17254 12.5641 4.19188 12.5899 4.19627 12.5999C4.2004 12.6084 4.20193 12.6178 4.20069 12.6271C4.19944 12.6363 4.19548 12.6451 4.18924 12.6523C4.0967 12.7526 3.9867 12.837 3.86403 12.9021C3.69995 12.9909 3.62085 13.0899 3.62671 13.1993C3.63198 13.31 3.72339 13.4032 3.88864 13.474C3.94088 13.4948 3.99723 13.5047 4.05388 13.5031C4.43799 13.5031 5.02689 13.1452 5.2273 12.9604C5.47517 12.7273 5.77841 12.1612 5.50417 11.8573Z" fill="url(#paint1_linear_1533_842)"/>
<path d="M9.63466 7.36048L9.39909 7.24809C9.24109 7.17031 9.06561 7.12976 8.88754 7.12988C8.47179 7.12988 8.07186 7.34632 7.87234 7.72093L6.79297 9.73717L9.05454 10.8235L10.133 8.8073C10.2692 8.5528 10.2932 8.25752 10.1998 7.98627C10.1063 7.71502 9.9031 7.48996 9.63466 7.36048Z" fill="#ED6D23"/>
<path d="M16.3004 16.458L13.0807 11.9502L10.7031 13.5935L14.5266 18.197H14.5284C14.7376 18.4676 15.0452 18.6282 15.3704 18.6699L15.3678 18.6824L21.2595 19.3816L21.6172 17.561L16.3004 16.458Z" fill="#91674D"/>
<path d="M19.9571 17.2119L19.5703 19.1765L21.2614 19.3763L21.6201 17.5557L19.9571 17.2119Z" fill="#BDBDBD"/>
<path d="M10.6957 1.79936C10.0998 0.981041 8.81914 0.381665 7.79339 0.592279C6.6437 0.82537 6.06183 1.64535 5.94932 2.6543C5.90801 3.02059 5.9379 3.38104 6.01788 3.63495C6.02667 3.66575 6.10314 3.88469 6.10929 3.95545C6.16731 4.2235 5.6285 4.51736 5.58016 4.81871C5.54236 5.04598 6.04337 5.16419 6.08556 5.20415C6.28948 5.39561 6.03283 6.3696 7.39346 6.4004C7.91644 6.41289 7.81272 6.38791 7.96918 6.4362C8.21265 6.51112 8.52029 7.18542 8.52029 7.18542C8.52029 7.18542 8.40602 8.1028 9.28938 7.79895C10.2958 7.45181 10.5226 6.58771 10.5226 6.58771C10.5226 6.58771 9.87213 5.826 10.432 4.80456C10.8785 3.98625 11.0781 2.32548 10.6957 1.79936Z" fill="#BA8D68"/>
<path d="M6.26563 5.73269C6.45652 5.73857 6.64322 5.67884 6.79125 5.56453C6.95825 5.4355 6.83256 5.30397 6.63743 5.39388C6.49934 5.45419 6.34635 5.47723 6.19531 5.46047L6.26563 5.73269Z" fill="#5D4037"/>
<path d="M6.98754 4.42932C7.12378 4.4185 7.22046 4.24868 7.20376 4.04889C7.18706 3.84909 7.06313 3.69675 6.92601 3.70757C6.78889 3.71756 6.69221 3.88739 6.70891 4.08718C6.72561 4.28697 6.85042 4.43931 6.98666 4.42849" fill="#49362E"/>
<path d="M6.7368 3.54216C6.49509 3.60876 6.43796 3.45642 6.51882 3.33405C6.57771 3.24414 6.72538 3.16922 7.0084 3.22333C7.27473 3.27577 7.3846 3.42146 7.45667 3.50887C7.52699 3.59794 7.5182 3.68535 7.45667 3.69367C7.37317 3.70616 7.03741 3.46058 6.73593 3.54216" fill="#613E31"/>
<path d="M11.4592 1.80375C11.3579 1.58267 11.204 1.38674 11.0097 1.23123C10.8153 1.07571 10.5856 0.964816 10.3385 0.907182C10.2357 0.660772 9.73203 -0.262434 8.0954 0.0722179C7.69723 0.1538 7.41332 0.349429 7.16106 0.520085C7.06397 0.591124 6.96176 0.655658 6.85518 0.713218C6.75285 0.766528 6.63384 0.783642 6.51942 0.761501C6.24958 0.690741 6.31286 0.305309 6.31286 0.305309C6.31286 0.305309 5.34776 0.532572 5.81361 1.40583C5.49542 1.55817 5.35919 1.89532 5.317 2.205C5.25986 2.63205 5.49718 3.02082 5.93491 3.18315C5.93491 3.18315 5.81361 2.50885 6.84903 2.50052C7.16985 2.49886 7.50825 2.52966 7.79831 2.40313C7.90994 2.35484 8.01102 2.28242 8.11913 2.22415L8.15868 2.22248C8.56037 2.40313 8.09012 3.30053 8.55158 3.79168C8.64387 3.88908 8.71243 3.84746 8.71243 3.84746L8.87504 3.59772C8.99809 3.4254 9.11236 3.27472 9.2776 3.30219C9.76982 3.38127 9.72324 4.20791 9.15631 4.41603C9.09917 4.43684 9.282 5.34839 10.4765 5.29179C11.0944 5.26265 11.2878 4.76733 11.2878 4.76733C11.2878 4.76733 11.0259 4.84225 10.9582 4.63247C10.923 4.52425 11.0215 4.37025 11.206 4.19709C11.7387 3.70011 11.5093 3.17149 11.4196 3.00666C11.5058 2.84683 11.7141 2.33237 11.4592 1.80375Z" fill="#543930"/>
<path d="M11.4313 3.00641C11.44 2.9881 11.2792 3.43097 10.4864 3.39767C10.1612 3.41266 9.74804 4.17603 10.249 4.64471C10.6929 5.05844 11.2994 4.76708 11.2994 4.76708C11.2994 4.76708 11.2159 4.79455 11.0885 4.75876C11.005 4.73628 10.9716 4.63638 10.9698 4.63222C10.9346 4.524 11.0331 4.36999 11.2185 4.19684C11.7494 3.69986 11.5218 3.16874 11.4313 3.00641Z" fill="url(#paint2_radial_1533_842)"/>
<path d="M11.4752 1.80267C11.3071 1.44516 11.0071 1.15803 10.6314 0.99518C10.5423 0.955455 10.4489 0.925298 10.3528 0.905273C10.4055 1.06344 10.4072 1.2366 10.3457 1.41724C10.3431 1.4239 10.2728 1.69195 10.0469 1.91256C10.2332 2.13316 10.3343 2.40621 10.4319 2.6726C10.5154 2.90569 10.5989 3.16376 10.4995 3.39269C10.6516 3.37604 10.8924 3.40517 11.1517 3.2803C11.4005 3.15959 11.5191 2.87656 11.5701 2.62432C11.6246 2.3496 11.5982 2.06074 11.4752 1.80267Z" fill="url(#paint3_radial_1533_842)"/>
<path d="M10.328 1.42032C10.495 0.947478 10.2023 0.531244 9.78037 0.264855C9.28639 -0.0473206 8.6553 -0.0431583 8.09452 0.0717222C7.69723 0.152472 7.4142 0.348101 7.16106 0.518757C7.064 0.590082 6.96179 0.654894 6.85518 0.712722C6.75274 0.765749 6.63374 0.782567 6.51942 0.760173C6.24958 0.689413 6.31286 0.304813 6.31286 0.304813C6.31286 0.304813 5.34776 0.531244 5.81361 1.40533C5.49542 1.55768 5.35919 1.89483 5.317 2.2045C5.25986 2.63156 5.49718 3.02032 5.93491 3.18265C5.93491 3.18265 5.81361 2.50835 6.84903 2.50003C7.16985 2.49836 7.50825 2.52917 7.79831 2.40263C8.05584 2.29025 8.13934 2.15039 8.4338 2.15289C8.75198 2.15456 9.18092 2.25029 9.50613 2.18619C10.1654 2.05882 10.3262 1.42864 10.328 1.42032Z" fill="url(#paint4_radial_1533_842)"/>
<path d="M10.2468 4.64149C10.0227 4.43754 9.94794 4.08624 9.60515 3.91309C9.58008 4.02382 9.52698 4.12714 9.45043 4.21414C9.37387 4.30115 9.27615 4.36924 9.16567 4.41257C9.10766 4.43338 9.29048 5.34493 10.4859 5.28915C11.1038 5.26002 11.2972 4.7647 11.2972 4.7647C11.2972 4.7647 10.6968 5.0519 10.2468 4.64149Z" fill="url(#paint5_radial_1533_842)"/>
<path d="M10.7415 12.0654L7.96226 16.4584C7.53453 17.1321 7.3529 17.9206 7.44543 18.7019L8.04752 23.859L9.71931 23.8632L9.90917 18.1341L13.2264 13.5614L10.7415 12.0654Z" fill="url(#paint6_linear_1533_842)"/>
<path d="M7.79688 21.7871L7.96564 23.5419L9.70159 23.5461L9.78773 21.7913L7.79688 21.7871Z" fill="#E0E0E0"/>
<path d="M13.3047 11.7686C13.1692 11.5927 12.9983 11.4439 12.8019 11.3306C12.6056 11.2174 12.3876 11.1419 12.1604 11.1085C11.9332 11.0751 11.7013 11.0844 11.4779 11.136C11.2545 11.1875 11.0441 11.2803 10.8586 11.409C10.484 11.6683 10.2333 12.0578 10.1617 12.492C10.09 12.9262 10.2031 13.3696 10.4762 13.7249L12.4469 16.1515L15.1435 14.2868L13.3047 11.7686Z" fill="#646464"/>
<path d="M12.9265 11.3895C12.5341 11.1536 12.0589 11.0749 11.6052 11.1706C11.1515 11.2663 10.7564 11.5285 10.5067 11.8998L8.84375 14.5238L11.6608 16.2203L13.4653 13.6788C13.9839 12.9063 13.7413 11.8807 12.9265 11.3895Z" fill="#7C7C7C"/>
<path d="M13.721 12.0363C13.2921 10.398 12.5414 8.76051 11.768 7.12222C11.5078 6.50452 10.8398 6.13574 10.177 6.13574C9.98806 6.13574 9.80084 6.16488 9.62329 6.22731C8.53074 6.61025 7.9682 7.56093 8.31099 8.7039C8.8164 10.3938 9.0669 11.3969 9.25324 13.0602C9.26667 13.1629 9.31968 13.2572 9.4021 13.3252C9.48452 13.3931 9.59052 13.4298 9.69976 13.4282C9.73902 13.4282 9.77916 13.4232 9.82017 13.4132C10.9611 13.1268 12.2461 12.8246 13.4063 12.5333C13.5169 12.5054 13.6116 12.4378 13.6704 12.3448C13.7291 12.2519 13.7473 12.1409 13.721 12.0354" fill="url(#paint7_radial_1533_842)"/>
<path d="M18.6628 11.7314C18.5925 11.5649 18.487 11.4009 18.3534 11.1903C18.2497 11.0304 17.4762 10.1955 17.1554 10.0498C16.962 9.74178 15.8967 8.48725 15.4194 7.9295C15.307 7.7978 15.1568 7.69954 14.987 7.64646L11.8491 6.7091C11.8352 6.70487 11.8205 6.7033 11.806 6.70449C11.7914 6.70568 11.7773 6.70961 11.7643 6.71604C11.7514 6.72247 11.74 6.73128 11.7307 6.74196C11.7214 6.75263 11.7144 6.76495 11.7102 6.7782L11.2312 8.25167C11.2229 8.27783 11.2258 8.30602 11.2393 8.33016C11.2528 8.3543 11.2758 8.37245 11.3033 8.3807L14.1713 9.21983L15.9029 10.8015C15.9793 11.0446 15.9618 11.3526 15.9486 11.6257C15.9336 11.9203 15.9204 12.1534 16.0215 12.2833C16.1182 12.4057 16.2281 12.4123 16.2852 12.4057C16.4364 12.3865 16.5463 12.2517 16.5946 12.1393C16.6588 11.9936 16.6561 11.8438 16.6544 11.733V11.6706C16.7906 11.7589 16.8416 12.0977 16.8811 12.3724C16.9339 12.7262 16.9778 13.0325 17.2037 13.07L17.2371 13.0717C17.2834 13.0717 17.3244 13.0556 17.3602 13.0234C17.4718 12.9235 17.4806 12.6621 17.4718 12.4723C17.4868 12.5372 17.4911 12.6013 17.4955 12.6654C17.5087 12.8261 17.5272 13.0425 17.7663 13.0508C17.7973 13.0536 17.8285 13.0485 17.8568 13.0361C17.8851 13.0236 17.9093 13.0043 17.9271 12.9801C17.9948 12.901 18.008 12.7653 17.9992 12.6279C18.0563 12.7362 18.1249 12.7994 18.2321 12.7661C18.2623 12.7556 18.2898 12.7393 18.3128 12.718C18.3358 12.6968 18.3538 12.6712 18.3657 12.6429C18.4008 12.5548 18.4158 12.4606 18.4097 12.3666C18.4219 12.3792 18.4369 12.3892 18.4536 12.3957C18.4834 12.4048 18.5153 12.4063 18.5459 12.3998C18.5782 12.3886 18.6076 12.3711 18.6322 12.3485C18.6569 12.3258 18.6763 12.2985 18.6892 12.2683C18.7577 12.1376 18.7445 11.9312 18.6628 11.7314Z" fill="url(#paint8_linear_1533_842)"/>
<path d="M11.1315 6.17475C10.8422 6.09598 10.5318 6.12903 10.2681 6.26665C10.0045 6.40428 9.80928 6.63526 9.72516 6.90899L9.64606 7.16539C9.56264 7.43938 9.59742 7.73352 9.74277 7.98324C9.88812 8.23297 10.1322 8.41786 10.4213 8.49734L12.7374 9.13001L13.4449 6.80493L11.1315 6.17475Z" fill="#ED6D23"/>
<path d="M9.72503 23.3691H7.98293L6.77875 23.8004C6.43947 23.9252 6.21797 24.2291 6.21357 24.5679L6.21094 24.8318C6.21094 24.9467 6.31026 25.0399 6.43332 25.0399L9.89643 25.0357C10.0371 25.0357 10.1513 24.93 10.1513 24.7968V24.2141C10.1531 23.8203 9.72503 23.3691 9.72503 23.3691Z" fill="#4568AD"/>
<path d="M22.9857 17.4603L22.3809 17.3537C22.3359 17.3471 22.2903 17.3437 22.2447 17.3438C21.858 17.3438 21.4185 17.5977 21.4185 17.5977L21.0977 19.221L21.3244 20.4197C21.3563 20.5839 21.4396 20.7351 21.5634 20.8539C21.6873 20.9726 21.8459 21.0534 22.0188 21.0857L22.2913 21.1356L22.3326 21.1398C22.3847 21.1401 22.4352 21.1229 22.4752 21.0911C22.5151 21.0594 22.5418 21.0153 22.5506 20.9666L23.1852 17.7408C23.1974 17.6786 23.1833 17.6144 23.146 17.5619C23.1087 17.5095 23.0511 17.473 22.9857 17.4603Z" fill="#325599"/>
<path d="M5.19643 16.1135C5.19643 17.433 4.0318 18.5052 2.59734 18.5052C1.16199 18.5052 0 17.433 0 16.1135C0 14.794 1.16463 13.7227 2.59734 13.7227C4.03444 13.7227 5.19643 14.7924 5.19643 16.1135Z" fill="url(#paint9_radial_1533_842)"/>
<path d="M2.66588 18.503C2.64303 18.5052 2.62018 18.506 2.59732 18.5055C2.34242 18.5055 2.09456 18.4697 1.86339 18.4072H1.86163C1.54696 17.9952 0.962452 17.0545 0.997611 15.7975C0.999955 15.7009 1.00669 15.6024 1.01783 15.5019C1.03741 15.2888 1.07623 15.0777 1.13385 14.8709L1.14088 14.8526C1.16449 14.7629 1.19595 14.6752 1.23493 14.5904H1.23757C1.26804 14.5182 1.30173 14.4522 1.33865 14.3922H1.34041C1.5162 14.0992 1.74737 13.9161 1.92052 13.8079C2.1262 13.7551 2.33949 13.7274 2.56041 13.7246C2.33803 13.8012 1.94513 13.9827 1.67265 14.3864C1.62578 14.4519 1.58534 14.5235 1.55136 14.6012H1.5496C1.47744 14.7557 1.42719 14.9187 1.40018 15.0857C1.37784 15.2116 1.36316 15.3386 1.35623 15.4661C1.3492 15.566 1.3492 15.6654 1.35623 15.7642C1.40897 17.0753 2.26332 18.0926 2.66588 18.503Z" fill="url(#paint10_radial_1533_842)"/>
<path d="M3.90713 14.0476C3.15122 14.0367 2.52716 14.5512 1.55766 14.5987H1.5559C1.50844 14.6009 1.46009 14.6023 1.41087 14.6028C1.35483 14.6029 1.29891 14.5979 1.24387 14.5878H1.24123C1.00215 14.5462 0.923048 14.4089 0.898438 14.3098C0.965239 14.2554 1.03438 14.2055 1.10587 14.1599C1.09884 14.2515 1.13839 14.3556 1.34495 14.3905H1.34671C1.45721 14.4037 1.56914 14.4014 1.67896 14.3839C2.23534 14.309 2.98597 13.9477 3.2145 13.8786C3.27961 13.8593 3.34687 13.8473 3.41491 13.8428C3.58894 13.8944 3.75302 13.9632 3.90713 14.0476Z" fill="url(#paint11_radial_1533_842)"/>
<path d="M4.64707 17.594C4.52834 17.7326 4.39427 17.8588 4.24715 17.9703C4.04498 17.6273 3.65385 17.0754 2.92255 16.4319C2.50944 16.0681 1.95129 15.7726 1.36678 15.7618C1.29995 15.7583 1.23293 15.7599 1.16638 15.7667C1.11185 15.7702 1.05805 15.7806 1.00641 15.7976C0.423658 15.9624 0.291813 16.695 0.268081 17.1528C0.153713 16.938 0.0751404 16.7077 0.0351562 16.4702C0.17579 16.1164 0.465848 15.6269 1.02575 15.502C1.07145 15.4915 1.11921 15.484 1.16902 15.4795C1.23582 15.4729 1.30174 15.4684 1.36678 15.4662C2.13148 15.4521 2.69402 15.8075 3.23194 16.1805C3.96412 16.68 4.42733 17.2777 4.64707 17.594Z" fill="url(#paint12_radial_1533_842)"/>
<path d="M5.19886 16.0842V16.115C5.19886 16.3015 5.1763 16.4819 5.13118 16.6561C4.4412 16.0509 3.03662 15.0328 1.40438 15.0853C1.29621 15.0889 1.18828 15.0972 1.08092 15.1102C0.586946 15.1743 0.274915 15.3533 0.0859375 15.5157C0.126385 15.3741 0.179916 15.2362 0.245909 15.1036C0.455102 14.9995 0.749554 14.8955 1.14509 14.8522C1.1864 14.8455 1.22859 14.8439 1.2699 14.8397L1.46591 14.8272C3.28097 14.7473 4.65654 15.6572 5.19886 16.0842Z" fill="url(#paint13_radial_1533_842)"/>
<defs>
<linearGradient id="paint0_linear_1533_842" x1="4.59315" y1="12.4695" x2="7.7397" y2="9.92259" gradientUnits="userSpaceOnUse">
<stop stop-color="#BA8D68"/>
<stop offset="1" stop-color="#A47B62"/>
</linearGradient>
<linearGradient id="paint1_linear_1533_842" x1="5.82851" y1="12.4675" x2="2.76409" y2="12.6725" gradientUnits="userSpaceOnUse">
<stop stop-color="#BA8D68"/>
<stop offset="1" stop-color="#A47B62"/>
</linearGradient>
<radialGradient id="paint2_radial_1533_842" cx="0" cy="0" r="1" gradientUnits="userSpaceOnUse" gradientTransform="translate(9.99415 4.15605) rotate(16.5798) scale(1.55777 2.14447)">
<stop offset="0.45" stop-color="#6D4C41" stop-opacity="0"/>
<stop offset="1" stop-color="#6D4C41"/>
</radialGradient>
<radialGradient id="paint3_radial_1533_842" cx="0" cy="0" r="1" gradientUnits="userSpaceOnUse" gradientTransform="translate(10.1137 2.65429) rotate(-9.9875) scale(1.5835 1.8991)">
<stop offset="0.45" stop-color="#6D4C41" stop-opacity="0"/>
<stop offset="1" stop-color="#6D4C41"/>
</radialGradient>
<radialGradient id="paint4_radial_1533_842" cx="0" cy="0" r="1" gradientUnits="userSpaceOnUse" gradientTransform="translate(8.30441 2.21956) rotate(-11.0303) scale(3.25817 2.32912)">
<stop offset="0.45" stop-color="#6D4C41" stop-opacity="0"/>
<stop offset="1" stop-color="#6D4C41"/>
</radialGradient>
<radialGradient id="paint5_radial_1533_842" cx="0" cy="0" r="1" gradientUnits="userSpaceOnUse" gradientTransform="translate(10.3628 4.32016) rotate(10.8584) scale(1.75414 1.07242)">
<stop offset="0.45" stop-color="#6D4C41" stop-opacity="0"/>
<stop offset="1" stop-color="#6D4C41"/>
</radialGradient>
<linearGradient id="paint6_linear_1533_842" x1="10.4436" y1="15.1222" x2="9.3579" y2="21.8407" gradientUnits="userSpaceOnUse">
<stop stop-color="#A47B62"/>
<stop offset="1" stop-color="#BA8D68"/>
</linearGradient>
<radialGradient id="paint7_radial_1533_842" cx="0" cy="0" r="1" gradientUnits="userSpaceOnUse" gradientTransform="translate(10.0724 8.89787) scale(3.35017 3.17295)">
<stop offset="0.367" stop-color="#F78C1F"/>
<stop offset="0.68" stop-color="#F37F21"/>
<stop offset="1" stop-color="#ED6D23"/>
</radialGradient>
<linearGradient id="paint8_linear_1533_842" x1="11.2268" y1="9.88746" x2="18.7331" y2="9.88746" gradientUnits="userSpaceOnUse">
<stop offset="0.007" stop-color="#A47B62"/>
<stop offset="1" stop-color="#BA8D68"/>
</linearGradient>
<radialGradient id="paint9_radial_1533_842" cx="0" cy="0" r="1" gradientUnits="userSpaceOnUse" gradientTransform="translate(1.67442 15.286) scale(2.80477 2.6564)">
<stop offset="0.017" stop-color="#FB8C00"/>
<stop offset="0.442" stop-color="#F47900"/>
<stop offset="0.838" stop-color="#D95A1E"/>
</radialGradient>
<radialGradient id="paint10_radial_1533_842" cx="0" cy="0" r="1" gradientUnits="userSpaceOnUse" gradientTransform="translate(1.17165 14.3906) scale(4.73519 4.48471)">
<stop offset="0.017" stop-color="#FFA726"/>
<stop offset="0.494" stop-color="#FC950D"/>
<stop offset="0.838" stop-color="#FB8C00"/>
</radialGradient>
<radialGradient id="paint11_radial_1533_842" cx="0" cy="0" r="1" gradientUnits="userSpaceOnUse" gradientTransform="translate(1.17619 14.3905) scale(4.73519 4.4847)">
<stop offset="0.017" stop-color="#FFA726"/>
<stop offset="0.494" stop-color="#FC950D"/>
<stop offset="0.838" stop-color="#FB8C00"/>
</radialGradient>
<radialGradient id="paint12_radial_1533_842" cx="0" cy="0" r="1" gradientUnits="userSpaceOnUse" gradientTransform="translate(1.18044 14.3907) scale(4.73519 4.48471)">
<stop offset="0.017" stop-color="#FFA726"/>
<stop offset="0.494" stop-color="#FC950D"/>
<stop offset="0.838" stop-color="#FB8C00"/>
</radialGradient>
<radialGradient id="paint13_radial_1533_842" cx="0" cy="0" r="1" gradientUnits="userSpaceOnUse" gradientTransform="translate(1.17409 14.3918) scale(4.73519 4.48471)">
<stop offset="0.017" stop-color="#FFA726"/>
<stop offset="0.494" stop-color="#FC950D"/>
<stop offset="0.838" stop-color="#FB8C00"/>
</radialGradient>
</defs>
</svg>
