<svg width="24" height="26" viewBox="0 0 24 26" fill="none" xmlns="http://www.w3.org/2000/svg">
<path d="M10.7778 1C5.378 1 1 5.254 1 10.5028C1 12.2944 1.50967 13.9708 2.397 15.4M15.0556 11.8V14.2M18.7222 11.8V14.2M15.0556 2.2V4.6M18.7222 2.2V4.6M13.2222 6.4H10.7778M13.2222 10H10.7778M23 6.4H20.5556M23 10H20.5556M14.4444 21.4L14.2856 22.1764C14.1144 23.0248 14.0277 23.4484 13.8333 23.7844C13.5339 24.3023 13.049 24.6923 12.473 24.8788C12.1002 25 11.6578 25 10.7778 25C9.89778 25 9.45533 25 9.08256 24.88C8.50632 24.6932 8.02144 24.3027 7.72222 23.7844C7.52789 23.4484 7.44111 23.0248 7.27 22.1764L7.11111 21.4M18.1111 4.6H15.6667C14.5141 4.6 13.9384 4.6 13.5803 4.9516C13.2222 5.3032 13.2222 5.8684 13.2222 7V9.4C13.2222 10.5316 13.2222 11.0968 13.5803 11.4484C13.9384 11.8 14.5141 11.8 15.6667 11.8H18.1111C19.2637 11.8 19.8393 11.8 20.1974 11.4484C20.5556 11.0968 20.5556 10.5316 20.5556 9.4V7C20.5556 5.8684 20.5556 5.3032 20.1974 4.9516C19.8393 4.6 19.2637 4.6 18.1111 4.6ZM5.13478 19.1176C5.02233 18.7864 4.96611 18.6196 4.97222 18.4852C4.97914 18.3462 5.02691 18.2122 5.10977 18.0993C5.19263 17.9865 5.30702 17.8996 5.43911 17.8492C5.56622 17.8 5.74467 17.8 6.09911 17.8H15.4564C15.8121 17.8 15.9893 17.8 16.1164 17.848C16.2487 17.8985 16.3632 17.9855 16.4461 18.0986C16.529 18.2117 16.5767 18.346 16.5833 18.4852C16.5894 18.6196 16.5332 18.7852 16.4208 19.1176C16.213 19.7308 16.1091 20.038 15.949 20.2864C15.6141 20.8055 15.0892 21.1788 14.4823 21.3292C14.1914 21.4 13.8639 21.4 13.2076 21.4H8.348C7.69167 21.4 7.36289 21.4 7.07322 21.328C6.46659 21.1779 5.94167 20.8051 5.60656 20.2864C5.44644 20.038 5.34256 19.7308 5.13478 19.1176Z" stroke="#DB602B" stroke-width="2" stroke-linecap="round" stroke-linejoin="round"/>
</svg>
