<svg width="195" height="154" viewBox="0 0 195 154" fill="none" xmlns="http://www.w3.org/2000/svg">
<path d="M67.156 144.459C67.156 148.324 64.022 151.458 60.156 151.458H52.7969C48.9309 151.458 45.7969 148.324 45.7969 144.458V7.57426C45.7969 3.70827 48.9309 0.574265 52.7969 0.574265H60.156C64.022 0.574265 67.156 3.70827 67.156 7.57426V144.459Z" fill="#F6692C" fill-opacity="0.48"/>
<path d="M26.6802 144.458C26.6802 148.324 23.5462 151.458 19.6802 151.458H12.3242C8.45823 151.458 5.32422 148.324 5.32422 144.458V120.736C5.32422 116.87 8.45823 113.736 12.3242 113.736H19.6802C23.5462 113.736 26.6802 116.87 26.6802 120.736V144.458Z" fill="#F6692C" fill-opacity="0.48"/>
<path d="M104.114 144.458C104.114 148.324 100.98 151.458 97.1138 151.458H89.7578C85.8918 151.458 82.7578 148.324 82.7578 144.458V83.0164C82.7578 79.1504 85.8918 76.0164 89.7578 76.0164H97.1138C100.98 76.0164 104.114 79.1504 104.114 83.0164V144.458Z" fill="#F6692C" fill-opacity="0.48"/>
<path d="M140.457 144.458C140.457 148.324 137.323 151.458 133.457 151.458H126.098C122.232 151.458 119.098 148.324 119.098 144.458V39.0764C119.098 35.2104 122.232 32.0764 126.098 32.0764H133.457C137.323 32.0764 140.457 35.2104 140.457 39.0764V144.458Z" fill="#F6692C" fill-opacity="0.48"/>
<path d="M182.344 144.459C182.344 148.324 179.21 151.458 175.344 151.458H167.988C164.122 151.458 160.988 148.324 160.988 144.458V126.548C160.988 122.682 164.122 119.548 167.988 119.548H175.344C179.21 119.548 182.344 122.682 182.344 126.548V144.459Z" fill="#F6692C" fill-opacity="0.48"/>
<path d="M194.286 152.185C194.286 152.656 150.788 153.039 97.1476 153.039C43.485 153.039 0 152.656 0 152.185C0 151.717 43.485 151.334 97.1476 151.334C150.788 151.334 194.286 151.717 194.286 152.185Z" fill="#17282F"/>
</svg>
