<svg width="23" height="22" viewBox="0 0 23 22" fill="none" xmlns="http://www.w3.org/2000/svg">
<path d="M11.5 7V5.986M11.5 6.25C11.5 3.35 13.85 1 16.75 1C19.65 1 22 3.382 22 6.282C22 7.842 21.313 9.337 20.12 10.344L14.463 15.12C13.5347 15.9038 12.7886 16.8808 12.2769 17.9828C11.7651 19.0847 11.5 20.285 11.5 21.5C11.5 20.285 11.2349 19.0847 10.7231 17.9828C10.2114 16.8808 9.46531 15.9038 8.537 15.12L2.88 10.344C2.29087 9.84373 1.81758 9.22131 1.49295 8.51991C1.16832 7.8185 1.00012 7.05489 1 6.282C1 3.382 3.35 1 6.25 1C9.15 1 11.5 3.35 11.5 6.25Z" stroke="#DB602B"/>
</svg>
