<svg width="36" height="34" viewBox="0 0 36 34" fill="none" xmlns="http://www.w3.org/2000/svg">
<path d="M18.504 29.888C19.7698 29.8015 21.025 29.5993 22.254 29.284C23.7719 29.7403 25.3741 29.8436 26.938 29.586C27.0004 29.5784 27.0631 29.5737 27.126 29.572C27.684 29.572 28.416 29.892 29.484 30.566V29.458C29.4845 29.265 29.5367 29.0756 29.6351 28.9096C29.7336 28.7435 29.8748 28.6069 30.044 28.514C30.5093 28.2513 30.9393 27.956 31.334 27.628C32.89 26.328 33.768 24.592 33.768 22.756C33.768 22.15 33.672 21.546 33.482 20.97C33.954 20.102 34.33 19.196 34.61 18.252C35.51 19.582 35.994 21.152 36 22.756C36 25.252 34.824 27.58 32.786 29.282C32.4447 29.566 32.088 29.8273 31.716 30.066V32.662C31.716 33.554 30.672 34.068 29.936 33.536C29.2387 33.0229 28.5179 32.5423 27.776 32.096C27.5617 31.9724 27.3399 31.8622 27.112 31.766C26.4929 31.8577 25.8679 31.9038 25.242 31.904C22.702 31.904 20.354 31.15 18.504 29.888ZM5.062 24.698C1.854 22.012 0 18.35 0 14.426C0 6.41 7.664 0 17.022 0C26.382 0 34.048 6.408 34.048 14.426C34.048 22.442 26.382 28.85 17.022 28.85C15.97 28.85 14.9333 28.77 13.912 28.61C13.472 28.712 11.708 29.746 9.168 31.576C8.248 32.24 6.944 31.6 6.944 30.482V26.056C6.28524 25.6488 5.65693 25.1942 5.064 24.696M13.974 25.88C14.0513 25.88 14.1293 25.886 14.208 25.898C15.128 26.05 16.066 26.1267 17.022 26.128C24.928 26.128 31.254 20.838 31.254 14.424C31.254 8.012 24.928 2.722 17.024 2.722C9.12 2.722 2.79 8.016 2.79 14.426C2.79 17.526 4.27 20.446 6.882 22.632C7.54067 23.1813 8.258 23.6747 9.034 24.112C9.2445 24.2288 9.42022 24.3994 9.5432 24.6064C9.66619 24.8134 9.73203 25.0493 9.734 25.29V27.842C11.744 26.512 13.066 25.88 13.974 25.88Z" fill="black"/>
<path d="M10.123 16.8762C10.7198 16.8762 11.2921 16.6392 11.714 16.2172C12.136 15.7953 12.373 15.223 12.373 14.6262C12.373 14.0295 12.136 13.4572 11.714 13.0352C11.2921 12.6133 10.7198 12.3762 10.123 12.3762C9.52631 12.3762 8.95401 12.6133 8.53206 13.0352C8.1101 13.4572 7.87305 14.0295 7.87305 14.6262C7.87305 15.223 8.1101 15.7953 8.53206 16.2172C8.95401 16.6392 9.52631 16.8762 10.123 16.8762ZM17.437 16.8762C18.0338 16.8762 18.6061 16.6392 19.028 16.2172C19.45 15.7953 19.687 15.223 19.687 14.6262C19.687 14.0295 19.45 13.4572 19.028 13.0352C18.6061 12.6133 18.0338 12.3762 17.437 12.3762C16.8403 12.3762 16.268 12.6133 15.8461 13.0352C15.4241 13.4572 15.187 14.0295 15.187 14.6262C15.187 15.223 15.4241 15.7953 15.8461 16.2172C16.268 16.6392 16.8403 16.8762 17.437 16.8762ZM24.749 16.8762C25.3458 16.8762 25.9181 16.6392 26.34 16.2172C26.762 15.7953 26.999 15.223 26.999 14.6262C26.999 14.0295 26.762 13.4572 26.34 13.0352C25.9181 12.6133 25.3458 12.3762 24.749 12.3762C24.1523 12.3762 23.58 12.6133 23.1581 13.0352C22.7361 13.4572 22.499 14.0295 22.499 14.6262C22.499 15.223 22.7361 15.7953 23.1581 16.2172C23.58 16.6392 24.1523 16.8762 24.749 16.8762Z" fill="black"/>
</svg>
