<svg width="29" height="29" viewBox="0 0 29 29" fill="none" xmlns="http://www.w3.org/2000/svg">
<path d="M8.29496 2C9.01439 2 11.8921 8.47482 11.8921 9.19424C11.8921 10.6331 9.73381 12.0719 9.01439 13.5108C8.29496 14.9496 9.73381 16.3885 11.1727 17.8273C11.7338 18.3885 14.0504 20.705 15.4892 19.9856C16.9281 19.2662 18.3669 17.1079 19.8058 17.1079C20.5252 17.1079 27 19.9856 27 20.705C27 23.5827 24.8417 25.741 22.6835 26.4604C20.5252 27.1799 19.0863 27.1799 16.2086 26.4604C13.3309 25.741 11.1727 25.0216 7.57554 21.4245C3.97842 17.8273 3.25899 15.6691 2.53957 12.7914C1.82014 9.91367 1.82014 8.47482 2.53957 6.31655C3.25899 4.15827 5.41727 2 8.29496 2Z" stroke="black" stroke-width="2.8777" stroke-linecap="round" stroke-linejoin="round"/>
<path d="M16.9277 7.81323C17.8774 8.25928 18.7407 8.86359 19.4601 9.5974C20.1651 10.3024 20.7551 11.1514 21.1867 12.0722" stroke="black" stroke-width="2.8777" stroke-linecap="round" stroke-linejoin="round" stroke-dasharray="5.76 5.76"/>
<path d="M18.3672 2.35986C20.396 2.89224 22.2089 3.9426 23.6478 5.38145C25.0722 6.82029 26.1226 8.61886 26.6406 10.6332" stroke="black" stroke-width="2.8777" stroke-linecap="round" stroke-linejoin="round" stroke-dasharray="8.63 8.63"/>
</svg>
