<svg width="1440" height="996" viewBox="0 0 1440 996" fill="none" xmlns="http://www.w3.org/2000/svg">
<path d="M0 410.639C20.8335 437.789 62.7723 450.517 97.9887 440.378C133.205 430.24 158.725 398.091 157.615 365.263C157.083 349.513 151.102 334.273 149.692 318.566C144.691 262.804 205.374 212.146 268.423 213.164C331.471 214.183 387.362 260.196 401.704 314.668C416.047 369.138 392.877 428.198 349.968 469.189C324.793 493.236 293.582 511.688 267.228 534.722C240.877 557.754 218.711 587.719 219.405 620.531C220.35 665.21 264.493 701.688 312.695 714.674C352.517 725.405 398.169 723.079 432.692 702.458C467.214 681.838 487.219 641.161 474.171 606.103C463.976 578.716 435.583 555.041 440.185 526.489C444.373 500.503 475.03 484.206 504.163 479.591C533.294 474.976 563.626 478.119 592.41 472.022C621.193 465.928 650.091 445.857 649.176 419.619C647.924 383.744 597.635 368.265 572.867 339.882C541.542 303.983 557.83 247.27 598.112 219.268C638.393 191.268 694.588 187.636 744.624 197.168C827.029 212.863 903.203 266.142 924.146 338.561C945.088 410.98 897.768 497.761 816.09 516.207C772.121 526.135 725.31 516.724 680.548 523.309C635.789 529.895 588.837 565.03 601.461 603.687C608.848 626.311 633.475 640.332 650.807 658.175C681.064 689.322 686.06 742.547 650.536 768.959C613.904 796.193 559.52 782.941 512.271 776.536C458.713 769.274 401.752 773.443 354.194 796.466C306.635 819.493 270.244 863.375 268.644 911.415C266.232 983.835 352.008 932.656 432.692 943.932C513.375 955.206 606.886 1016.8 680.548 985.5C734.491 920.394 740.093 972.446 771.311 943.932C802.527 915.419 824.064 876.345 820.094 836.756C813.751 773.51 745.861 722.518 749.389 659.099C751.843 614.977 794.553 575.402 844.14 571.305C893.725 567.21 932.419 610.77 944.014 653.732C950.959 679.46 956.901 695.554 966.464 720.613C982.349 762.227 1040.62 784.41 1087.88 771.268C1135.14 758.126 1167.79 715.506 1171.34 671.686C1174.89 627.864 1152.46 584.365 1117.96 552.839C1088.97 526.343 1048.54 501.414 1049.04 464.493C1049.84 404.853 1157.56 375.538 1148.8 316.403C1144.8 289.361 1116.25 270.535 1087.78 260.239C1059.31 249.943 1027.99 244.551 1003.1 228.545C948.279 193.301 946.802 115.227 987.93 67.5219C1029.06 19.8182 1100.04 -0.826593 1167.7 -2.81763C1235.73 -4.81898 1306.25 10.4721 1358.76 48.8887C1411.26 87.3054 1442.39 150.965 1427.26 209.831C1415.68 254.859 1380.01 291.745 1342.92 324.159C1305.83 356.571 1265.42 387.32 1239.75 427.502C1214.09 467.687 1206.19 520.87 1235.93 558.779C1283.9 619.916 1405.52 617.507 1434.73 687.34C1450.39 724.777 1429.26 767.805 1396.35 795.048C1363.44 822.293 1320.64 837.645 1279.94 854.699C1239.23 871.75 1198.02 892.376 1173.59 925.916C1149.16 959.453 1165.75 959.078 1199.5 985.5C1196.69 979.795 1090.69 991.205 1087.88 985.5" stroke="#43255F" stroke-opacity="0.15" stroke-width="2.66667" stroke-miterlimit="10"/>
</svg>
