<svg width="1440" height="1084" viewBox="0 0 1440 1084" fill="none" xmlns="http://www.w3.org/2000/svg">
<path d="M0 420.07C20.8335 447.844 62.7723 460.864 97.9887 450.492C133.205 440.121 158.725 407.234 157.615 373.652C157.083 357.54 151.102 341.951 149.692 325.883C144.691 268.84 205.374 217.019 268.423 218.06C331.471 219.102 387.362 266.173 401.704 321.895C416.047 377.617 392.877 438.033 349.968 479.965C324.793 504.564 293.582 523.44 267.228 547.003C240.877 570.564 218.711 601.217 219.405 634.783C220.35 680.488 264.493 717.804 312.695 731.088C352.517 742.066 398.169 739.686 432.692 718.592C467.214 697.498 487.219 655.887 474.171 620.023C463.976 592.008 435.583 567.788 440.185 538.581C444.373 511.998 475.03 495.326 504.163 490.606C533.294 485.885 563.626 489.1 592.41 482.863C621.193 476.629 650.091 456.097 649.177 429.257C647.925 392.557 597.635 376.723 572.867 347.688C541.542 310.965 557.831 252.949 598.113 224.304C638.393 195.661 694.588 191.945 744.624 201.696C827.029 217.752 903.203 272.254 924.146 346.336C945.088 420.419 897.768 509.193 816.09 528.062C772.121 538.219 725.31 528.592 680.549 535.328C635.789 542.065 588.837 578.007 601.461 617.552C608.848 640.695 633.475 655.039 650.808 673.291C681.064 705.154 686.06 759.601 650.537 786.619C613.904 814.479 559.52 800.923 512.271 794.371C458.713 786.942 401.752 791.206 354.194 814.759C306.635 838.314 270.244 883.204 268.644 932.347C266.232 1006.43 343.244 1067.54 423.928 1079.08C504.612 1090.61 585.896 1064.24 659.558 1032.21C699.966 1014.65 740.094 994.78 771.311 965.612C802.527 936.444 824.064 896.472 820.094 855.974C813.751 791.275 745.861 739.112 749.389 674.237C751.843 629.101 794.553 588.618 844.14 584.426C893.725 580.237 932.419 624.798 944.014 668.747C950.959 695.065 956.901 711.529 966.464 737.164C982.349 779.734 1040.62 802.426 1087.88 788.982C1135.14 775.538 1167.79 731.939 1171.34 687.112C1174.89 642.284 1152.46 597.786 1117.96 565.536C1088.97 538.432 1048.54 512.93 1049.04 475.161C1049.84 414.152 1157.56 384.163 1148.8 323.67C1144.8 296.007 1116.25 276.749 1087.78 266.216C1059.31 255.684 1027.99 250.168 1003.1 233.794C948.279 197.74 946.802 117.874 987.93 69.0728C1029.06 20.2735 1100.04 -0.845487 1167.7 -2.88225C1235.73 -4.92957 1306.25 10.7127 1358.76 50.0117C1411.26 89.3106 1442.39 154.433 1427.26 214.65C1415.68 260.712 1380.01 298.445 1342.92 331.604C1305.84 364.761 1265.42 396.216 1239.75 437.321C1214.09 478.429 1206.19 532.833 1235.93 571.613C1283.9 634.154 1405.52 631.69 1434.73 703.126C1450.39 741.423 1429.26 785.44 1396.35 813.308C1363.44 841.179 1320.64 856.883 1279.94 874.329C1239.23 891.772 1198.02 912.872 1173.59 947.181C1149.16 981.489 1147.56 1032.36 1181.31 1059.39C1178.51 1053.56 1175.7 1047.72 1172.9 1041.88" stroke="#7337E9" stroke-opacity="0.16" stroke-width="2.66667" stroke-miterlimit="10"/>
</svg>
